<?xml version="1.0" standalone="no"?>
<!DOCTYPE svg PUBLIC "-//W3C//DTD SVG 20010904//EN"
 "http://www.w3.org/TR/2001/REC-SVG-20010904/DTD/svg10.dtd">
<svg version="1.0" xmlns="http://www.w3.org/2000/svg"
 width="386.000000pt" height="386.000000pt" viewBox="0 0 386.000000 386.000000"
 preserveAspectRatio="xMidYMid meet">
<metadata>
Created by potrace 1.11, written by Peter Selinger 2001-2013
</metadata>
<g transform="translate(0.000000,386.000000) scale(0.100000,-0.100000)"
fill="#000000" stroke="none">
<path d="M1100 2928 c-391 -42 -706 -298 -835 -679 -58 -169 -71 -360 -35
-502 113 -448 647 -763 1190 -703 244 27 528 185 777 432 56 56 105 98 110 94
4 -4 35 -23 68 -41 193 -107 317 -142 510 -142 184 1 338 40 467 120 181 112
265 238 275 414 8 125 -24 226 -102 320 -127 151 -347 224 -584 193 -101 -13
-261 -79 -365 -151 -122 -85 -287 -235 -273 -249 3 -4 62 -39 129 -79 l123
-73 50 48 c171 164 345 233 518 206 62 -9 107 -29 146 -62 85 -72 82 -192 -8
-273 -87 -79 -320 -134 -465 -111 -111 18 -196 56 -438 201 -460 276 -711 375
-973 383 -176 6 -316 -32 -440 -120 -72 -50 -115 -94 -94 -94 218 -7 309 -16
449 -46 200 -42 435 -126 631 -225 l101 -50 -23 -26 c-156 -170 -361 -303
-544 -355 -112 -32 -295 -32 -410 -1 -422 115 -636 446 -515 798 81 234 295
417 554 472 195 41 382 16 629 -84 101 -41 120 -46 192 -46 78 0 227 31 247
51 23 23 -205 192 -345 257 -221 102 -488 148 -717 123z"/>
<path d="M2205 1314 c-37 -31 -80 -69 -97 -84 l-30 -28 34 -25 c71 -54 230
-121 363 -152 91 -21 141 -27 246 -30 275 -8 521 88 729 283 30 29 50 52 43
52 -6 0 -59 -11 -118 -25 -270 -64 -385 -80 -565 -79 -188 1 -361 44 -479 118
-22 14 -45 26 -50 26 -6 0 -40 -25 -76 -56z"/>
</g>
</svg>
