<?xml version="1.0" standalone="no"?>
<!DOCTYPE svg PUBLIC "-//W3C//DTD SVG 20010904//EN"
 "http://www.w3.org/TR/2001/REC-SVG-20010904/DTD/svg10.dtd">
<svg version="1.0" xmlns="http://www.w3.org/2000/svg"
 width="64.000000pt" height="64.000000pt" viewBox="0 0 64.000000 64.000000"
 preserveAspectRatio="xMidYMid meet">

<g transform="translate(0.000000,64.000000) scale(0.100000,-0.100000)"
fill="#000000" stroke="none">
<path d="M47 572 c-23 -25 -22 -85 1 -105 16 -15 50 -17 274 -17 286 0 288 1
288 72 0 67 -5 68 -292 68 -234 0 -256 -1 -271 -18z m531 -14 c15 -15 15 -61
0 -76 -17 -17 -499 -17 -516 0 -15 15 -15 61 0 76 17 17 499 17 516 0z"/>
<path d="M47 372 c-23 -25 -22 -85 1 -105 16 -15 50 -17 274 -17 286 0 288 1
288 72 0 67 -5 68 -292 68 -234 0 -256 -1 -271 -18z m531 -14 c15 -15 15 -61
0 -76 -17 -17 -499 -17 -516 0 -7 7 -12 24 -12 38 0 14 5 31 12 38 17 17 499
17 516 0z"/>
<path d="M47 172 c-23 -25 -22 -85 1 -105 16 -15 50 -17 274 -17 286 0 288 1
288 72 0 67 -5 68 -292 68 -234 0 -256 -1 -271 -18z m531 -14 c15 -15 15 -61
0 -76 -17 -17 -499 -17 -516 0 -15 15 -15 61 0 76 17 17 499 17 516 0z"/>
</g>
</svg>
